# xmcd
#
# Track frame offsets:
#	150
#	24371
#	53315
#	76122
#	99354
#	120245
#	142999
#	167598
#	186356
#	210786
#
# Disc length: 3135 seconds
#
# Revision: 0
# Processed by: cddbd v1.5.2PL0 Copyright (c) Steve Scherf et al.
# Submitted via: FairStars CD Ripper 1.90
#
DISCID=650c3d0a
DTITLE=Huong Lan and Quang Linh - Tren manh dat tinh nguoi
DYEAR=2000
DGENRE=Country
TTITLE0=Huong Lan - Que huong mua nuoc lu
TTITLE1=Quang Linh - Nhung canh dieu que huong
TTITLE2=Huong Lan - Huyen Tran cong chua
TTITLE3=Quang Linh - Em toi
TTITLE4=Huong Lan - Tren manh dat tinh nguoi
TTITLE5=Quang Linh - Dem giao thua nghe khuc dan ca
TTITLE6=Huong Lan - Da co hoai lang
TTITLE7=Quang Linh - Truong xua ky niem
TTITLE8=Bonus 1
TTITLE9=Bonus 2
EXTD=
EXTT0=
EXTT1=
EXTT2=
EXTT3=
EXTT4=
EXTT5=
EXTT6=
EXTT7=
EXTT8=
EXTT9=
PLAYORDER=
